<svg xmlns="http://www.w3.org/2000/svg" xmlns:xlink="http://www.w3.org/1999/xlink" viewBox="0, 0, 500, 520"><g><path d="M238.334 0.311 C 172.334 5.504,117.665 54.323,105.161 119.235 C 103.257 129.121,102.687 135.584,102.687 147.314 C 102.687 229.179,168.163 294.677,250.000 294.677 C 338.244 294.677,406.519 218.090,396.485 130.358 C 387.486 51.682,317.444 -5.914,238.334 0.311 M113.791 294.311 C 43.469 343.145,-0.000 427.016,-0.000 513.866 L 0.000 520.890 250.000 520.890 L 500.000 520.890 500.000 513.904 C 499.998 427.244,456.753 343.314,387.032 294.655 C 381.922 291.089,382.568 291.188,379.920 293.561 C 332.610 335.953,266.139 352.692,204.558 337.721 C 173.076 330.068,142.201 313.856,119.559 293.089 C 117.628 291.319,118.306 291.175,113.791 294.311 " fill="#3e50b4" fill-rule="evenodd"></path></g></svg>